<svg xmlns="http://www.w3.org/2000/svg" width="182" height="55" viewBox="0 0 182 55">
<polygon points="34.1 11.1 0 11 0.2 55 13.6 55 13.6 37.4 31.1 37.4 31.1 28.9 13.3 28.9 13.3 19.5 34 19.4 34.1 11.1" style="fill:#afb4b8"/>
<rect x="36.1" y="23.4" width="11.9" height="31.57" style="fill:#afb4b8"/><rect x="36" y="11.1" width="12.2" height="8.29" style="fill:#afb4b8"/>
<path d="M68 21s-9.2.9-13.7 8.3S51 55 70.9 54.9c25.5 0 22.5-37.7-2.9-33.9zm10.1 16.8a7.7 7.7 0 1 0-7.7 7.9 7.8 7.8 0 0 0 7.7-7.9z" style="fill:#afb4b8"/>
<path d="M98.7 34.5V6h20.7v11.2h-14.6v8.5c5-8.1 20.8-9.8 28.2-2.2.5-9.5 5.1-18.8 14.5-23.3l.5-.2H95.7v3.6H76.6v13.2h16.3v17.7zM172.5 23.8h-.8v-5.6h-.5v-1.7a1.2 1.2 0 0 0 .4-.9 1.4 1.4 0 1 0-2.8 0 1.4 1.4 0 0 0 .4.9v1.6h-.5v5.6h-3.1v-4.9l.2-.4h-10.2l.2.4v4.9h-3.1v-5.6h-.5v-1.7a1.2 1.2 0 0 0 .4-.9 1.4 1.4 0 1 0-2.4.9V18h-.5v5.6h-.8v14l-.6 1v.7H173v-.7l-.6-1v-14z" style="fill:#008abd"/><path d="M167.7 0c.2.1 1.9 1.8 1.9 3.3s-3 2.6-3 2.6c-1.9-1-3.4-2.3-5.1-2.8-20.7-6.9-29.4 20.1-17.7 36.6 13.7 19.4 36.1 4 36.1 4v4c-22.9 14.2-38.8 4.6-44.6-9.8h-20.7v1.6c.2 3.9 3.4 3.9 3.4 3.9 3.8.8 6.8-2.3 6.8-2.3h9.5v2.3c-8.9 12.4-24.4 5.5-24.4 5.5a11.1 11.1 0 0 1-5.2-5.3v8.7h-7.1V55h84.3V0zm6.1 23.8l-.6.5V29h.5v.8l-.5.5v3.2h.5v.8l-.5.5v3l.5.5v2.1h-26.2v-1.6l.5-1v-3l-.5-.5v-.8h.5v-3.2l-.5-.5V29h.5v-4.7l-.6-.5V23h1.4v-5.6h.4V17a3.2 3.2 0 0 1-.4-1.3 2.3 2.3 0 0 1 1.8-2.2v-.2a.6.6 0 0 1-.1-.4.5.5 0 0 1 .2-.4v-1.6a.2.2 0 0 1 .2-.2.2.2 0 0 1 .2.2v1.6a.5.5 0 0 1 .2.4.6.6 0 0 1-.1.4v.2a2.3 2.3 0 0 1 1.8 2.2 3.2 3.2 0 0 1-.4 1.3v.4h.5V23h1.5v-4l-.4-.4V18l.4-.2.2-.4h.6l.4.5h2.4l.4-.5h.6l.4.5h1l.4-.5h.6l.4.5h2.5l.4-.5h.6l.2.4.4.2v.6l-.4.4v3.9h1.4v-5.6h.5v-.4a3.2 3.2 0 0 1-.4-1.3 2.3 2.3 0 0 1 2.6-2.1v-.2a.5.5 0 0 1-.1-.4.5.5 0 0 1 .2-.4l.2-1.6c0-.1 0-.2.1-.2a.2.2 0 0 1 .2.2v1.6a.5.5 0 0 1 .2.4.6.6 0 0 1-.1.4v.2a2.3 2.3 0 0 1 1.8 2.2 3.2 3.2 0 0 1-.4 1.3v.4h.5V23h1.4v.8z" style="fill:#008abd"/><path d="M115.2 33h8.9c1.6 0-4.8-10.8-9.6-1-.3.5 0 1 .7 1z" style="fill:#008abd"/>
<ellipse cx="70.4" cy="37.8" rx="7.7" ry="7.9" style="fill:#fff"/>

</svg>